solid STL generated by MeshLab
  facet normal 0.000000e+000 -0.000000e+000 -1.000000e+000
    outer loop
      vertex  1.000000e+000 9.999999e-001 -1.000000e+000
      vertex  1.000000e+000 -1.000000e+000 -1.000000e+000
      vertex  -1.000000e+000 -9.999998e-001 -1.000000e+000
    endloop
  endfacet
  facet normal 0.000000e+000 0.000000e+000 -1.000000e+000
    outer loop
      vertex  -1.000000e+000 -9.999998e-001 -1.000000e+000
      vertex  -9.999996e-001 1.000000e+000 -1.000000e+000
      vertex  1.000000e+000 9.999999e-001 -1.000000e+000
    endloop
  endfacet
  facet normal 0.000000e+000 0.000000e+000 1.000000e+000
    outer loop
      vertex  1.000000e+000 9.999995e-001 1.000000e+000
      vertex  -9.999999e-001 1.000000e+000 1.000000e+000
      vertex  -1.000000e+000 -9.999996e-001 1.000000e+000
    endloop
  endfacet
  facet normal -0.000000e+000 0.000000e+000 1.000000e+000
    outer loop
      vertex  -1.000000e+000 -9.999996e-001 1.000000e+000
      vertex  9.999993e-001 -1.000001e+000 1.000000e+000
      vertex  1.000000e+000 9.999995e-001 1.000000e+000
    endloop
  endfacet
  facet normal 1.000000e+000 -5.662441e-007 -2.384187e-007
    outer loop
      vertex  1.000000e+000 9.999999e-001 -1.000000e+000
      vertex  1.000000e+000 9.999995e-001 1.000000e+000
      vertex  9.999993e-001 -1.000001e+000 1.000000e+000
    endloop
  endfacet
  facet normal 1.000000e+000 0.000000e+000 3.278256e-007
    outer loop
      vertex  9.999993e-001 -1.000001e+000 1.000000e+000
      vertex  1.000000e+000 -1.000000e+000 -1.000000e+000
      vertex  1.000000e+000 9.999999e-001 -1.000000e+000
    endloop
  endfacet
  facet normal -4.768372e-007 -1.000000e+000 -2.980234e-007
    outer loop
      vertex  1.000000e+000 -1.000000e+000 -1.000000e+000
      vertex  9.999993e-001 -1.000001e+000 1.000000e+000
      vertex  -1.000000e+000 -9.999996e-001 1.000000e+000
    endloop
  endfacet
  facet normal -8.940696e-008 -1.000000e+000 8.940696e-008
    outer loop
      vertex  -1.000000e+000 -9.999996e-001 1.000000e+000
      vertex  -1.000000e+000 -9.999998e-001 -1.000000e+000
      vertex  1.000000e+000 -1.000000e+000 -1.000000e+000
    endloop
  endfacet
  facet normal -1.000000e+000 2.086163e-007 -1.192093e-007
    outer loop
      vertex  -1.000000e+000 -9.999998e-001 -1.000000e+000
      vertex  -1.000000e+000 -9.999996e-001 1.000000e+000
      vertex  -9.999999e-001 1.000000e+000 1.000000e+000
    endloop
  endfacet
  facet normal -1.000000e+000 2.384186e-007 -1.490116e-007
    outer loop
      vertex  -9.999999e-001 1.000000e+000 1.000000e+000
      vertex  -9.999996e-001 1.000000e+000 -1.000000e+000
      vertex  -1.000000e+000 -9.999998e-001 -1.000000e+000
    endloop
  endfacet
  facet normal 2.086163e-007 1.000000e+000 2.384185e-007
    outer loop
      vertex  1.000000e+000 9.999995e-001 1.000000e+000
      vertex  1.000000e+000 9.999999e-001 -1.000000e+000
      vertex  -9.999996e-001 1.000000e+000 -1.000000e+000
    endloop
  endfacet
  facet normal 2.682209e-007 1.000000e+000 1.788140e-007
    outer loop
      vertex  -9.999996e-001 1.000000e+000 -1.000000e+000
      vertex  -9.999999e-001 1.000000e+000 1.000000e+000
      vertex  1.000000e+000 9.999995e-001 1.000000e+000
    endloop
  endfacet
endsolid vcg
